<svg width="512" height="512" viewBox="0 0 512 512" fill="none" xmlns="http://www.w3.org/2000/svg">
  <defs>
    <linearGradient id="g1" x1="88" y1="96" x2="424" y2="416" gradientUnits="userSpaceOnUse">
      <stop stop-color="#60A5FA"/>
      <stop offset="0.5" stop-color="#8B5CF6"/>
      <stop offset="1" stop-color="#A855F7"/>
    </linearGradient>
    <linearGradient id="g2" x1="140" y1="156" x2="382" y2="372" gradientUnits="userSpaceOnUse">
      <stop stop-color="#C4B5FD"/>
      <stop offset="1" stop-color="#93C5FD"/>
    </linearGradient>
    <filter id="glow" x="0" y="0" width="512" height="512" filterUnits="userSpaceOnUse" color-interpolation-filters="sRGB">
      <feGaussianBlur stdDeviation="16" result="blur"/>
      <feMerge>
        <feMergeNode in="blur"/>
        <feMergeNode in="SourceGraphic"/>
      </feMerge>
    </filter>
  </defs>
  <rect x="32" y="32" width="448" height="448" rx="120" fill="#0A0A0F"/>
  <circle cx="150" cy="118" r="50" fill="#60A5FA" fill-opacity="0.10"/>
  <circle cx="396" cy="384" r="64" fill="#8B5CF6" fill-opacity="0.10"/>
  <path d="M96 324C132 324 152 322 176 302C194 286 204 250 214 214C224 176 240 146 256 146C272 146 288 176 298 214C308 250 318 286 336 302C360 322 380 324 416 324" stroke="url(#g1)" stroke-width="20" stroke-linecap="round" filter="url(#glow)"/>
  <path d="M302 217C286 201 264 192 240 192C186 192 146 235 146 292C146 350 187 392 240 392C262 392 282 386 298 376V320H238" stroke="url(#g2)" stroke-width="18" stroke-linecap="round" stroke-linejoin="round"/>
  <path d="M330 230L386 304" stroke="url(#g1)" stroke-width="18" stroke-linecap="round"/>
  <path d="M386 230L330 304" stroke="url(#g1)" stroke-width="18" stroke-linecap="round"/>
  <circle cx="256" cy="146" r="9" fill="#E9D5FF"/>
</svg>